# xmcd
#
# Track frame offsets:
#	150
#	9443
#	16335
#	22754
#	35292
#	44463
#	53231
#	64500
#	74774
#	82199
#	93666
#	102869
#	109976
#	118495
#	130989
#	141376
#	149836
#	158219
#	167286
#	171246
#	182049
#	190133
#	203502
#	213813
#
# Disc length: 2956 seconds
#
# Revision: 0
# Processed by: cddbd v1.5.2PL0 Copyright (c) Steve Scherf et al.
# Submitted via: EasyCDDAExtractor 16.0.1.1
#
DISCID=5b0b8a18
DTITLE=Eddie Bond - Early Days
DYEAR=1900
DGENRE=Country
TTITLE0=Eddie Bond - The Monkey and The Baboon
TTITLE1=Eddie Bond - Jukejoint Johnny
TTITLE2=Eddie Bond - The Cliff Finch Train [uniss]
TTITLE3=Eddie Bond - When The Jukebox Plays
TTITLE4=Eddie Bond - Hey  Joe
TTITLE5=Eddie Bond - It's Been So Long Darling
TTITLE6=Eddie Bond  and Stompers - Standing In Your Window
TTITLE7=Eddie Bond  and Stompers - The Blues Got Me
TTITLE8=Eddie Bond - Here Comes That Train
TTITLE9=Eddie Bond - Someday I'll Sober Up
TTITLE10=Eddie Bond - Rocking Daddy [uniss-62]
TTITLE11=Eddie Bond with 'Cousin Bo Jack [voc] - You Don't Miss Your Water
TTITLE12=Eddie Bond - Boo Bop Da Caa Caa
TTITLE13=Eddie Bond - You'll Never Be A Stranger To Me
TTITLE14=Eddie Bond - Big Boss Man
TTITLE15=Eddie Bond - My Bucket's Got A Hole In It [uniss-62]
TTITLE16=Eddie Bond - I'll Step Aside
TTITLE17=Eddie Bond - Can't Win For Losing
TTITLE18=Eddie Bond - Doody Do Right [Demo]
TTITLE19=Eddie Bond - Standing In Your Window [uniss-62]
TTITLE20=Eddie Bond - Winner's Circle
TTITLE21=Eddie Bond - Your Old Standby
TTITLE22=Eddie Bond - Candy Kisses
TTITLE23=Eddie Bond with'Cousin Bo Jack [voc] - Let The Good Times Roll
EXTD=
EXTT0=
EXTT1=
EXTT2=
EXTT3=
EXTT4=
EXTT5=
EXTT6=
EXTT7=
EXTT8=
EXTT9=
EXTT10=
EXTT11=
EXTT12=
EXTT13=
EXTT14=
EXTT15=
EXTT16=
EXTT17=
EXTT18=
EXTT19=
EXTT20=
EXTT21=
EXTT22=
EXTT23=
PLAYORDER=
